<svg width="53" height="53" viewBox="0 0 53 53" fill="none" xmlns="http://www.w3.org/2000/svg">
<path d="M26.5953 52.5916C19.6178 52.5837 12.9283 49.8119 7.9944 44.8844C3.06053 39.9568 0.28521 33.2758 0.277344 26.3071C0.28521 19.3384 3.06053 12.6575 7.9944 7.72993C12.9283 2.80234 19.6178 0.0305615 26.5953 0.0227051C33.5729 0.0305615 40.2624 2.80234 45.1963 7.72993C50.1301 12.6575 52.9054 19.3384 52.9133 26.3071C52.9054 33.2758 50.1301 39.9568 45.1963 44.8844C40.2624 49.8119 33.5729 52.5837 26.5953 52.5916ZM26.5953 2.30828C20.2235 2.31417 14.1141 4.84428 9.60782 9.34345C5.10152 13.8426 2.56631 19.9433 2.55844 26.3071C2.5663 32.6696 5.1005 38.7693 9.60519 43.2682C14.1099 47.7672 20.2173 50.2982 26.5879 50.306C32.9585 50.2982 39.0659 47.7672 43.5706 43.2682C48.0753 38.7693 50.6095 32.6696 50.6174 26.3071C50.6095 19.9459 48.0763 13.8474 43.5732 9.3487C39.0702 4.84996 32.9646 2.31809 26.5953 2.30828Z" fill="#6A1AB7"/>
</svg>
