<svg xmlns="http://www.w3.org/2000/svg">
    <symbol id="btn-arrow" viewBox="0 0 12 10">
        <path fill-rule="evenodd" clip-rule="evenodd" d="M0 5C0 4.81059 0.079009 4.62895 0.219646 4.49502C0.360282 4.36109 0.551026 4.28584 0.749916 4.28584H9.43845L6.21831 1.22068C6.07749 1.08658 5.99838 0.904705 5.99838 0.715059C5.99838 0.525414 6.07749 0.343536 6.21831 0.209436C6.35912 0.0753365 6.5501 0 6.74925 0C6.94839 0 7.13937 0.0753365 7.28019 0.209436L11.7797 4.49438C11.8495 4.56072 11.9049 4.63952 11.9427 4.72629C11.9805 4.81305 12 4.90606 12 5C12 5.09394 11.9805 5.18695 11.9427 5.27371C11.9049 5.36048 11.8495 5.43928 11.7797 5.50562L7.28019 9.79056C7.13937 9.92466 6.94839 10 6.74925 10C6.5501 10 6.35912 9.92466 6.21831 9.79056C6.07749 9.65646 5.99838 9.47459 5.99838 9.28494C5.99838 9.0953 6.07749 8.91342 6.21831 8.77932L9.43845 5.71416H0.749916C0.551026 5.71416 0.360282 5.63892 0.219646 5.50499C0.079009 5.37106 0 5.18941 0 5Z"/>
    </symbol>
    
    <symbol id="first-screen-vector" viewBox="0 0 631 444">
        <path d="M314.141 443.775C310.29 443.772 306.445 443.452 302.647 442.817C267.777 436.992 247.21 408.511 225.431 378.36C210.125 357.174 194.299 335.26 173.018 321.829C152.585 308.931 128.073 304.561 104.363 300.308C91.449 298.008 78.0968 295.626 65.4282 291.901C27.1772 280.651 -7.88622 246.448 2.16693 210.821C9.88697 183.468 40.0018 170.37 57.2623 164.998C64.1502 162.853 71.2907 161.035 78.2008 159.276C94.7852 155.054 111.934 150.69 126.498 141.526C147.302 128.421 160.848 106.9 173.94 86.0923C181.37 74.2191 189.09 62.0118 198.11 51.2665C224.993 19.2458 268.468 0.129883 314.416 0.129883C353.009 0.129883 388.585 13.2275 414.599 37.0112C425.945 47.4003 435.983 59.7559 445.694 71.7183C464.114 94.4036 481.508 115.835 507.492 125.794C521.29 131.085 536.418 132.406 551.041 133.689C558.196 134.32 565.596 134.966 572.796 136.071C588.927 138.542 617.504 146.282 627.728 170.333C640.263 199.831 614.54 234.286 582.641 247.962C569.564 253.565 555.506 257.149 541.901 260.577C524.202 265.082 505.894 269.742 489.889 278.899C460.317 295.848 441.637 326.029 423.567 355.222C418.819 362.895 413.908 370.806 408.885 378.375C395.8 398.092 360.402 443.775 314.141 443.775ZM314.379 2.44517C269.107 2.44517 226.279 21.2568 199.827 52.7655C190.911 63.3921 183.25 75.5697 175.842 87.3391C162.616 108.362 148.944 130.105 127.679 143.485C112.818 152.835 95.4985 157.25 78.7358 161.517C71.8554 163.269 64.7446 165.079 57.9311 167.209C41.109 172.448 11.7891 185.16 4.35886 211.474C-5.30048 245.758 28.8787 278.796 66.0301 289.741C78.5798 293.452 91.8725 295.804 104.727 298.09C128.652 302.357 153.395 306.764 174.207 319.899C195.866 333.576 211.827 355.667 227.259 377.039C248.755 406.797 269.055 434.922 302.996 440.576C306.679 441.192 310.407 441.502 314.141 441.504C359.295 441.504 394.098 396.534 406.968 377.195C411.968 369.685 416.872 361.76 421.613 354.102C439.832 324.671 458.667 294.231 488.745 277C504.995 267.687 523.452 262.989 541.307 258.448C554.823 255.004 568.799 251.45 581.713 245.914C612.6 232.675 637.603 199.527 625.596 171.283C615.446 147.396 585.027 140.323 572.425 138.387C565.299 137.296 557.936 136.65 550.818 136.027C536.031 134.728 520.747 133.385 506.645 127.983C480.082 117.801 461.684 95.1383 443.889 73.2098C434.229 61.3366 424.243 49.0106 413.023 38.7476C387.434 15.3202 352.4 2.45259 314.379 2.45259V2.44517Z" fill="#6A1AB7"/>
    </symbol>

    <symbol id="first-screen-circle" viewBox="0 0 53 53">
        <path d="M26.5953 52.5913C19.6178 52.5835 12.9283 49.8117 7.9944 44.8841C3.06053 39.9565 0.28521 33.2755 0.277344 26.3069C0.28521 19.3382 3.06053 12.6573 7.9944 7.72969C12.9283 2.8021 19.6178 0.0303174 26.5953 0.0224609C33.5729 0.0303174 40.2624 2.8021 45.1963 7.72969C50.1301 12.6573 52.9054 19.3382 52.9133 26.3069C52.9054 33.2755 50.1301 39.9565 45.1963 44.8841C40.2624 49.8117 33.5729 52.5835 26.5953 52.5913ZM26.5953 2.30803C20.2235 2.31392 14.1141 4.84403 9.60782 9.3432C5.10152 13.8424 2.56631 19.9431 2.55844 26.3069C2.5663 32.6693 5.1005 38.769 9.60519 43.268C14.1099 47.7669 20.2173 50.2979 26.5879 50.3058C32.9585 50.2979 39.0659 47.7669 43.5706 43.268C48.0753 38.769 50.6095 32.6693 50.6174 26.3069C50.6095 19.9457 48.0763 13.8472 43.5732 9.34846C39.0702 4.84971 32.9646 2.31785 26.5953 2.30803Z" fill="#6A1AB7"/>
    </symbol>

    <symbol id="first-screen-rect" viewBox="0 0 520 627">
        <path d="M0 50.5981C0 22.9839 22.3858 0.598145 50 0.598145H470C497.614 0.598145 520 22.9839 520 50.5981V577C520 604.614 497.614 627 470 627H50C22.3858 627 0 604.614 0 577V50.5981Z" fill="#FFF2F3"/>    
    </symbol>

    <symbol id="card-hat" viewBox="0 0 32 32">
        <g clip-path="url(#clip0_4688_582)">
        <g clip-path="url(#clip1_4688_582)">
        <path d="M32 21.874C32 20.6534 31.2139 19.6225 30.125 19.2342V9.52206L32 8.749L16 2.32938L0 8.749L16 15.1687L28.25 10.2749V19.2342C27.1611 19.6225 26.375 20.6534 26.375 21.874C26.375 22.9915 27.035 23.9508 27.9813 24.4041L26.4236 29.0774L28.2015 29.6706L29.1875 26.7126L30.1735 29.6706L31.9514 29.0774L30.3937 24.4041C31.34 23.9508 32 22.9916 32 21.874Z" fill="white"/>
        </g>
        </g>
        <g clip-path="url(#clip2_4688_582)">
        <g clip-path="url(#clip3_4688_582)">
        <path d="M16 17.1892L7.5625 13.8012V16.249C7.5625 18.9214 11.1898 20.9365 16 20.9365C20.8102 20.9365 24.4375 18.9214 24.4375 16.249V13.8012L16 17.1892Z" fill="white"/>
        </g>
        </g>
        <defs>
        <clipPath id="clip0_4688_582">
        <rect width="32" height="27.3413" fill="white" transform="translate(0 2.32938)"/>
        </clipPath>
        <clipPath id="clip1_4688_582">
        <rect width="32" height="27.3413" fill="white" transform="translate(0 2.32938)"/>
        </clipPath>
        <clipPath id="clip2_4688_582">
        <rect width="16.875" height="7.13525" fill="white" transform="translate(7.5625 13.8012)"/>
        </clipPath>
        <clipPath id="clip3_4688_582">
        <rect width="16.875" height="7.13525" fill="white" transform="translate(7.5625 13.8012)"/>
        </clipPath>
        </defs>
    </symbol>

    <symbol id="card-backpack" viewBox="0 0 32 32">
        <g clip-path="url(#clip0_2645_286)">
        <g clip-path="url(#clip1_2645_286)">
        <path d="M11.2754 21.606H20.7247V26.3306H11.2754V21.606Z" fill="white"/>
        <path d="M15.9997 3.65186C10.2683 3.65186 5.60547 8.31478 5.60547 14.0461V28.2201C5.60547 30.3042 7.30105 31.9998 9.3852 31.9998H22.6142C24.6984 31.9998 26.394 30.3042 26.394 28.2201V14.0461C26.394 8.31472 21.7312 3.65186 15.9997 3.65186ZM10.3301 12.1562H21.6693V14.0461H19.7795V15.936H17.8896V14.0461H10.3301V12.1562ZM22.6142 28.2201H9.3852V19.7157H22.6142V28.2201Z" fill="white"/>
        <path d="M25.7042 1.83877L20.3411 0L19.5566 2.288C21.4519 2.86245 23.1545 3.88336 24.5422 5.22799L25.7042 1.83877Z" fill="white"/>
        <path d="M12.4425 2.288L11.658 0L6.29492 1.83877L7.45694 5.22799C8.8446 3.88342 10.5473 2.86245 12.4425 2.288Z" fill="white"/>
        </g>
        </g>
        <defs>
        <clipPath id="clip0_2645_286">
        <rect width="32" height="32" fill="white"/>
        </clipPath>
        <clipPath id="clip1_2645_286">
        <rect width="20.7885" height="32" fill="white" transform="translate(5.60547)"/>
        </clipPath>
        </defs>
    </symbol>

    <symbol id="card-book" viewBox="0 0 32 32">
        <g clip-path="url(#clip0_2645_292)">
        <g clip-path="url(#clip1_2645_292)">
        <path d="M6.61288 25.5456H28.4103C28.477 25.5456 28.5417 25.5361 28.6038 25.5213C28.6088 25.5213 28.6129 25.5221 28.6178 25.5221C29.0832 25.5221 29.4612 25.1445 29.4612 24.6788V0.843336C29.4613 0.377812 29.0832 0 28.6178 0H28.412H7.96166H6.61407C4.36935 0 2.54348 1.82629 2.54348 4.07037C2.54348 4.10047 2.54941 4.12904 2.55233 4.15809C2.54941 6.23107 2.5237 25.2792 2.54941 27.7833C2.5478 27.8322 2.54181 27.88 2.54181 27.9295C2.54181 30.0873 4.23141 31.8538 6.35664 31.9873C6.39928 31.9939 6.44108 32.0001 6.48532 32.0001H28.6178C29.0831 32.0001 29.4611 31.6225 29.4611 31.1567V27.9823C29.4611 27.5169 29.083 27.139 28.6178 27.139C28.1525 27.139 27.7744 27.517 27.7744 27.9823V30.3135H6.61288C5.33133 30.3135 4.28519 29.296 4.23378 28.0272C4.23503 28.0045 4.23914 27.9831 4.23872 27.9601C4.23789 27.923 4.23663 27.8654 4.2358 27.7888C4.30951 26.54 5.34596 25.5456 6.61288 25.5456ZM7.18793 4.07037C7.18793 3.60485 7.56574 3.22704 8.03126 3.22704C8.49679 3.22704 8.8746 3.60485 8.8746 4.07037V21.2008C8.8746 21.6661 8.49679 22.0441 8.03126 22.0441C7.56574 22.0441 7.18793 21.666 7.18793 21.2008V4.07037Z" fill="white"/>
        </g>
        </g>
        <defs>
        <clipPath id="clip0_2645_292">
        <rect width="32" height="32" fill="white"/>
        </clipPath>
        <clipPath id="clip1_2645_292">
        <rect width="26.9231" height="32.0001" fill="white" transform="translate(2.53809)"/>
        </clipPath>
        </defs>
    </symbol>

    <symbol id="card-heart" viewBox="0 0 24 24" fill="none">
        <path d="M16.5431 3.75C13.5 3.75 12 6.75 12 6.75C12 6.75 10.5 3.75 7.45687 3.75C4.98374 3.75 3.0253 5.81906 2.99999 8.28797C2.94843 13.4128 7.06546 17.0573 11.5781 20.1202C11.7025 20.2048 11.8495 20.2501 12 20.2501C12.1505 20.2501 12.2975 20.2048 12.4219 20.1202C16.9341 17.0573 21.0511 13.4128 21 8.28797C20.9747 5.81906 19.0162 3.75 16.5431 3.75V3.75Z" stroke="#252B42" stroke-width="2" stroke-linecap="round" stroke-linejoin="round"/>
    </symbol>

    <symbol id="card-basket" viewBox="0 0 24 24" fill="none">
        <path d="M2.31 11.242C2.27324 11.0946 2.27054 10.9408 2.3021 10.7922C2.33366 10.6436 2.39866 10.5042 2.49215 10.3845C2.58565 10.2648 2.70519 10.1679 2.8417 10.1013C2.97821 10.0347 3.1281 10 3.28 10H20.72C20.8719 10 21.0218 10.0347 21.1583 10.1013C21.2948 10.1679 21.4143 10.2648 21.5078 10.3845C21.6013 10.5042 21.6663 10.6436 21.6979 10.7922C21.7295 10.9408 21.7268 11.0946 21.69 11.242L19.879 18.485C19.7708 18.9177 19.5212 19.3018 19.1697 19.5763C18.8182 19.8508 18.385 19.9999 17.939 20H6.061C5.61501 19.9999 5.18183 19.8508 4.83033 19.5763C4.47882 19.3018 4.22915 18.9177 4.121 18.485L2.31 11.243V11.242Z" stroke="#252B42" stroke-width="2" stroke-linejoin="round"/>
        <path d="M9 14V16M15 14V16M6 10L10 4M18 10L14 4" stroke="#252B42" stroke-width="2" stroke-linecap="round"/>
    </symbol>
    
    <symbol id="card-eye" viewBox="0 0 24 22" fill="none">
        <path d="M12 6.075C11.5584 6.08199 11.12 6.15302 10.6983 6.28593C10.8934 6.63327 10.9972 7.02544 11 7.425C11 7.73524 10.9396 8.04245 10.8224 8.32909C10.7051 8.61572 10.5332 8.87616 10.3166 9.09554C10.0999 9.31492 9.84266 9.48894 9.55957 9.60766C9.27648 9.72639 8.97306 9.7875 8.66664 9.7875C8.27202 9.78472 7.88469 9.67956 7.54164 9.48206C7.27099 10.4325 7.30254 11.445 7.63181 12.3762C7.96109 13.3075 8.5714 14.1102 9.3763 14.6707C10.1812 15.2312 11.1399 15.5212 12.1165 15.4994C13.0932 15.4776 14.0384 15.1452 14.8181 14.5493C15.5978 13.9535 16.1726 13.1243 16.4611 12.1793C16.7495 11.2343 16.737 10.2213 16.4253 9.28389C16.1135 8.34649 15.5184 7.53215 14.7242 6.95623C13.9299 6.38031 12.9769 6.07201 12 6.075V6.075ZM23.855 10.1841C21.5954 5.7202 17.1221 2.7 12 2.7C6.87789 2.7 2.40331 5.72231 0.144977 10.1845C0.0496613 10.3754 0 10.5863 0 10.8002C0 11.0141 0.0496613 11.225 0.144977 11.4159C2.40456 15.8798 6.87789 18.9 12 18.9C17.1221 18.9 21.5966 15.8777 23.855 11.4155C23.9503 11.2246 24 11.0137 24 10.7998C24 10.5859 23.9503 10.375 23.855 10.1841V10.1841ZM12 16.875C7.88956 16.875 4.12123 14.5547 2.08623 10.8C4.12123 7.04531 7.88914 4.725 12 4.725C16.1108 4.725 19.8787 7.04531 21.9137 10.8C19.8791 14.5547 16.1108 16.875 12 16.875Z" fill="#252B42"/>
    </symbol>

    <symbol id="card-sales" viewBox="0 0 16 16">
        <path d="M0.5 9.89999C0.632608 9.89999 0.759785 9.95267 0.853553 10.0464C0.947322 10.1402 1 10.2674 1 10.4V12.9C1 13.1652 1.10536 13.4196 1.29289 13.6071C1.48043 13.7946 1.73478 13.9 2 13.9H14C14.2652 13.9 14.5196 13.7946 14.7071 13.6071C14.8946 13.4196 15 13.1652 15 12.9V10.4C15 10.2674 15.0527 10.1402 15.1464 10.0464C15.2402 9.95267 15.3674 9.89999 15.5 9.89999C15.6326 9.89999 15.7598 9.95267 15.8536 10.0464C15.9473 10.1402 16 10.2674 16 10.4V12.9C16 13.4304 15.7893 13.9391 15.4142 14.3142C15.0391 14.6893 14.5304 14.9 14 14.9H2C1.46957 14.9 0.960859 14.6893 0.585786 14.3142C0.210714 13.9391 0 13.4304 0 12.9V10.4C0 10.2674 0.0526784 10.1402 0.146447 10.0464C0.240215 9.95267 0.367392 9.89999 0.5 9.89999Z" fill="#737373"/>
        <path d="M7.64602 11.854C7.69247 11.9006 7.74764 11.9375 7.80839 11.9627C7.86913 11.9879 7.93425 12.0009 8.00002 12.0009C8.06579 12.0009 8.13091 11.9879 8.19165 11.9627C8.2524 11.9375 8.30758 11.9006 8.35402 11.854L11.354 8.854C11.4479 8.76011 11.5007 8.63278 11.5007 8.5C11.5007 8.36722 11.4479 8.23989 11.354 8.146C11.2601 8.05211 11.1328 7.99937 11 7.99937C10.8672 7.99937 10.7399 8.05211 10.646 8.146L8.50002 10.293V1.5C8.50002 1.36739 8.44734 1.24021 8.35358 1.14645C8.25981 1.05268 8.13263 1 8.00002 1C7.86741 1 7.74024 1.05268 7.64647 1.14645C7.5527 1.24021 7.50002 1.36739 7.50002 1.5V10.293L5.35402 8.146C5.26013 8.05211 5.1328 7.99937 5.00002 7.99937C4.86725 7.99937 4.73991 8.05211 4.64602 8.146C4.55213 8.23989 4.49939 8.36722 4.49939 8.5C4.49939 8.63278 4.55213 8.76011 4.64602 8.854L7.64602 11.854Z" fill="#737373"/>
    </symbol>
    <symbol id="card-star" viewBox="0 0 16 16">
        <path d="M15.5 6.3H9.775L8 0.75L6.225 6.3H0.5L5.125 9.725L3.375 15.25L8 11.825L12.625 15.25L10.85 9.7L15.5 6.3Z" fill="#FFCE31"/>
    </symbol>
</svg>