<svg xmlns="http://www.w3.org/2000/svg">
    <symbol id="btn-arrow" viewBox="0 0 12 10">
        <path fill-rule="evenodd" clip-rule="evenodd" d="M0 5C0 4.81059 0.079009 4.62895 0.219646 4.49502C0.360282 4.36109 0.551026 4.28584 0.749916 4.28584H9.43845L6.21831 1.22068C6.07749 1.08658 5.99838 0.904705 5.99838 0.715059C5.99838 0.525414 6.07749 0.343536 6.21831 0.209436C6.35912 0.0753365 6.5501 0 6.74925 0C6.94839 0 7.13937 0.0753365 7.28019 0.209436L11.7797 4.49438C11.8495 4.56072 11.9049 4.63952 11.9427 4.72629C11.9805 4.81305 12 4.90606 12 5C12 5.09394 11.9805 5.18695 11.9427 5.27371C11.9049 5.36048 11.8495 5.43928 11.7797 5.50562L7.28019 9.79056C7.13937 9.92466 6.94839 10 6.74925 10C6.5501 10 6.35912 9.92466 6.21831 9.79056C6.07749 9.65646 5.99838 9.47459 5.99838 9.28494C5.99838 9.0953 6.07749 8.91342 6.21831 8.77932L9.43845 5.71416H0.749916C0.551026 5.71416 0.360282 5.63892 0.219646 5.50499C0.079009 5.37106 0 5.18941 0 5Z"/>
    </symbol>
        <symbol id="card-hat" viewBox="0 0 32 32">
        <g clip-path="url(#clip0_4688_582)">
        <g clip-path="url(#clip1_4688_582)">
        <path d="M32 21.874C32 20.6534 31.2139 19.6225 30.125 19.2342V9.52206L32 8.749L16 2.32938L0 8.749L16 15.1687L28.25 10.2749V19.2342C27.1611 19.6225 26.375 20.6534 26.375 21.874C26.375 22.9915 27.035 23.9508 27.9813 24.4041L26.4236 29.0774L28.2015 29.6706L29.1875 26.7126L30.1735 29.6706L31.9514 29.0774L30.3937 24.4041C31.34 23.9508 32 22.9916 32 21.874Z" fill="white"/>
        </g>
        </g>
        <g clip-path="url(#clip2_4688_582)">
        <g clip-path="url(#clip3_4688_582)">
        <path d="M16 17.1892L7.5625 13.8012V16.249C7.5625 18.9214 11.1898 20.9365 16 20.9365C20.8102 20.9365 24.4375 18.9214 24.4375 16.249V13.8012L16 17.1892Z" fill="white"/>
        </g>
        </g>
        <defs>
        <clipPath id="clip0_4688_582">
        <rect width="32" height="27.3413" fill="white" transform="translate(0 2.32938)"/>
        </clipPath>
        <clipPath id="clip1_4688_582">
        <rect width="32" height="27.3413" fill="white" transform="translate(0 2.32938)"/>
        </clipPath>
        <clipPath id="clip2_4688_582">
        <rect width="16.875" height="7.13525" fill="white" transform="translate(7.5625 13.8012)"/>
        </clipPath>
        <clipPath id="clip3_4688_582">
        <rect width="16.875" height="7.13525" fill="white" transform="translate(7.5625 13.8012)"/>
        </clipPath>
        </defs>
    </symbol>

    <symbol id="card-backpack" viewBox="0 0 32 32">
        <g clip-path="url(#clip0_2645_286)">
        <g clip-path="url(#clip1_2645_286)">
        <path d="M11.2754 21.606H20.7247V26.3306H11.2754V21.606Z" fill="white"/>
        <path d="M15.9997 3.65186C10.2683 3.65186 5.60547 8.31478 5.60547 14.0461V28.2201C5.60547 30.3042 7.30105 31.9998 9.3852 31.9998H22.6142C24.6984 31.9998 26.394 30.3042 26.394 28.2201V14.0461C26.394 8.31472 21.7312 3.65186 15.9997 3.65186ZM10.3301 12.1562H21.6693V14.0461H19.7795V15.936H17.8896V14.0461H10.3301V12.1562ZM22.6142 28.2201H9.3852V19.7157H22.6142V28.2201Z" fill="white"/>
        <path d="M25.7042 1.83877L20.3411 0L19.5566 2.288C21.4519 2.86245 23.1545 3.88336 24.5422 5.22799L25.7042 1.83877Z" fill="white"/>
        <path d="M12.4425 2.288L11.658 0L6.29492 1.83877L7.45694 5.22799C8.8446 3.88342 10.5473 2.86245 12.4425 2.288Z" fill="white"/>
        </g>
        </g>
        <defs>
        <clipPath id="clip0_2645_286">
        <rect width="32" height="32" fill="white"/>
        </clipPath>
        <clipPath id="clip1_2645_286">
        <rect width="20.7885" height="32" fill="white" transform="translate(5.60547)"/>
        </clipPath>
        </defs>
    </symbol>

    <symbol id="card-book" viewBox="0 0 32 32">
        <g clip-path="url(#clip0_2645_292)">
        <g clip-path="url(#clip1_2645_292)">
        <path d="M6.61288 25.5456H28.4103C28.477 25.5456 28.5417 25.5361 28.6038 25.5213C28.6088 25.5213 28.6129 25.5221 28.6178 25.5221C29.0832 25.5221 29.4612 25.1445 29.4612 24.6788V0.843336C29.4613 0.377812 29.0832 0 28.6178 0H28.412H7.96166H6.61407C4.36935 0 2.54348 1.82629 2.54348 4.07037C2.54348 4.10047 2.54941 4.12904 2.55233 4.15809C2.54941 6.23107 2.5237 25.2792 2.54941 27.7833C2.5478 27.8322 2.54181 27.88 2.54181 27.9295C2.54181 30.0873 4.23141 31.8538 6.35664 31.9873C6.39928 31.9939 6.44108 32.0001 6.48532 32.0001H28.6178C29.0831 32.0001 29.4611 31.6225 29.4611 31.1567V27.9823C29.4611 27.5169 29.083 27.139 28.6178 27.139C28.1525 27.139 27.7744 27.517 27.7744 27.9823V30.3135H6.61288C5.33133 30.3135 4.28519 29.296 4.23378 28.0272C4.23503 28.0045 4.23914 27.9831 4.23872 27.9601C4.23789 27.923 4.23663 27.8654 4.2358 27.7888C4.30951 26.54 5.34596 25.5456 6.61288 25.5456ZM7.18793 4.07037C7.18793 3.60485 7.56574 3.22704 8.03126 3.22704C8.49679 3.22704 8.8746 3.60485 8.8746 4.07037V21.2008C8.8746 21.6661 8.49679 22.0441 8.03126 22.0441C7.56574 22.0441 7.18793 21.666 7.18793 21.2008V4.07037Z" fill="white"/>
        </g>
        </g>
        <defs>
        <clipPath id="clip0_2645_292">
        <rect width="32" height="32" fill="white"/>
        </clipPath>
        <clipPath id="clip1_2645_292">
        <rect width="26.9231" height="32.0001" fill="white" transform="translate(2.53809)"/>
        </clipPath>
        </defs>
    </symbol>

    <symbol id="card-heart" viewBox="0 0 24 24" fill="none">
        <path d="M16.5431 3.75C13.5 3.75 12 6.75 12 6.75C12 6.75 10.5 3.75 7.45687 3.75C4.98374 3.75 3.0253 5.81906 2.99999 8.28797C2.94843 13.4128 7.06546 17.0573 11.5781 20.1202C11.7025 20.2048 11.8495 20.2501 12 20.2501C12.1505 20.2501 12.2975 20.2048 12.4219 20.1202C16.9341 17.0573 21.0511 13.4128 21 8.28797C20.9747 5.81906 19.0162 3.75 16.5431 3.75V3.75Z" stroke="#252B42" stroke-width="2" stroke-linecap="round" stroke-linejoin="round"/>
    </symbol>

    <symbol id="card-basket" viewBox="0 0 24 24" fill="none">
        <path d="M2.31 11.242C2.27324 11.0946 2.27054 10.9408 2.3021 10.7922C2.33366 10.6436 2.39866 10.5042 2.49215 10.3845C2.58565 10.2648 2.70519 10.1679 2.8417 10.1013C2.97821 10.0347 3.1281 10 3.28 10H20.72C20.8719 10 21.0218 10.0347 21.1583 10.1013C21.2948 10.1679 21.4143 10.2648 21.5078 10.3845C21.6013 10.5042 21.6663 10.6436 21.6979 10.7922C21.7295 10.9408 21.7268 11.0946 21.69 11.242L19.879 18.485C19.7708 18.9177 19.5212 19.3018 19.1697 19.5763C18.8182 19.8508 18.385 19.9999 17.939 20H6.061C5.61501 19.9999 5.18183 19.8508 4.83033 19.5763C4.47882 19.3018 4.22915 18.9177 4.121 18.485L2.31 11.243V11.242Z" stroke="#252B42" stroke-width="2" stroke-linejoin="round"/>
        <path d="M9 14V16M15 14V16M6 10L10 4M18 10L14 4" stroke="#252B42" stroke-width="2" stroke-linecap="round"/>
    </symbol>
    
    <symbol id="card-eye" viewBox="0 0 24 22" fill="none">
        <path d="M12 6.075C11.5584 6.08199 11.12 6.15302 10.6983 6.28593C10.8934 6.63327 10.9972 7.02544 11 7.425C11 7.73524 10.9396 8.04245 10.8224 8.32909C10.7051 8.61572 10.5332 8.87616 10.3166 9.09554C10.0999 9.31492 9.84266 9.48894 9.55957 9.60766C9.27648 9.72639 8.97306 9.7875 8.66664 9.7875C8.27202 9.78472 7.88469 9.67956 7.54164 9.48206C7.27099 10.4325 7.30254 11.445 7.63181 12.3762C7.96109 13.3075 8.5714 14.1102 9.3763 14.6707C10.1812 15.2312 11.1399 15.5212 12.1165 15.4994C13.0932 15.4776 14.0384 15.1452 14.8181 14.5493C15.5978 13.9535 16.1726 13.1243 16.4611 12.1793C16.7495 11.2343 16.737 10.2213 16.4253 9.28389C16.1135 8.34649 15.5184 7.53215 14.7242 6.95623C13.9299 6.38031 12.9769 6.07201 12 6.075V6.075ZM23.855 10.1841C21.5954 5.7202 17.1221 2.7 12 2.7C6.87789 2.7 2.40331 5.72231 0.144977 10.1845C0.0496613 10.3754 0 10.5863 0 10.8002C0 11.0141 0.0496613 11.225 0.144977 11.4159C2.40456 15.8798 6.87789 18.9 12 18.9C17.1221 18.9 21.5966 15.8777 23.855 11.4155C23.9503 11.2246 24 11.0137 24 10.7998C24 10.5859 23.9503 10.375 23.855 10.1841V10.1841ZM12 16.875C7.88956 16.875 4.12123 14.5547 2.08623 10.8C4.12123 7.04531 7.88914 4.725 12 4.725C16.1108 4.725 19.8787 7.04531 21.9137 10.8C19.8791 14.5547 16.1108 16.875 12 16.875Z" fill="#252B42"/>
    </symbol>

    <symbol id="card-sales" viewBox="0 0 16 16">
        <path d="M0.5 9.89999C0.632608 9.89999 0.759785 9.95267 0.853553 10.0464C0.947322 10.1402 1 10.2674 1 10.4V12.9C1 13.1652 1.10536 13.4196 1.29289 13.6071C1.48043 13.7946 1.73478 13.9 2 13.9H14C14.2652 13.9 14.5196 13.7946 14.7071 13.6071C14.8946 13.4196 15 13.1652 15 12.9V10.4C15 10.2674 15.0527 10.1402 15.1464 10.0464C15.2402 9.95267 15.3674 9.89999 15.5 9.89999C15.6326 9.89999 15.7598 9.95267 15.8536 10.0464C15.9473 10.1402 16 10.2674 16 10.4V12.9C16 13.4304 15.7893 13.9391 15.4142 14.3142C15.0391 14.6893 14.5304 14.9 14 14.9H2C1.46957 14.9 0.960859 14.6893 0.585786 14.3142C0.210714 13.9391 0 13.4304 0 12.9V10.4C0 10.2674 0.0526784 10.1402 0.146447 10.0464C0.240215 9.95267 0.367392 9.89999 0.5 9.89999Z" fill="#737373"/>
        <path d="M7.64602 11.854C7.69247 11.9006 7.74764 11.9375 7.80839 11.9627C7.86913 11.9879 7.93425 12.0009 8.00002 12.0009C8.06579 12.0009 8.13091 11.9879 8.19165 11.9627C8.2524 11.9375 8.30758 11.9006 8.35402 11.854L11.354 8.854C11.4479 8.76011 11.5007 8.63278 11.5007 8.5C11.5007 8.36722 11.4479 8.23989 11.354 8.146C11.2601 8.05211 11.1328 7.99937 11 7.99937C10.8672 7.99937 10.7399 8.05211 10.646 8.146L8.50002 10.293V1.5C8.50002 1.36739 8.44734 1.24021 8.35358 1.14645C8.25981 1.05268 8.13263 1 8.00002 1C7.86741 1 7.74024 1.05268 7.64647 1.14645C7.5527 1.24021 7.50002 1.36739 7.50002 1.5V10.293L5.35402 8.146C5.26013 8.05211 5.1328 7.99937 5.00002 7.99937C4.86725 7.99937 4.73991 8.05211 4.64602 8.146C4.55213 8.23989 4.49939 8.36722 4.49939 8.5C4.49939 8.63278 4.55213 8.76011 4.64602 8.854L7.64602 11.854Z" fill="#737373"/>
    </symbol>
    <symbol id="card-star" viewBox="0 0 16 16">
        <path d="M15.5 6.3H9.775L8 0.75L6.225 6.3H0.5L5.125 9.725L3.375 15.25L8 11.825L12.625 15.25L10.85 9.7L15.5 6.3Z" fill="#FFCE31"/>
    </symbol>

    <symbol id="card-facebook" viewBox="0 0 24 24">
        <path fill-rule="evenodd" clip-rule="evenodd" d="M23.5 11.5704C23.5 5.1801 18.3515 0 12.0014 0C5.64848 0.00143732 0.5 5.1801 0.5 11.5719C0.5 17.3456 4.7056 22.1319 10.2019 23V14.9151H7.28415V11.5719H10.2048V9.02062C10.2048 6.12155 11.9224 4.52037 14.5484 4.52037C15.8075 4.52037 17.1226 4.74603 17.1226 4.74603V7.59193H15.6724C14.2451 7.59193 13.7995 8.4845 13.7995 9.40008V11.5704H16.9875L16.4787 14.9136H13.7981V22.9986C19.2944 22.1304 23.5 17.3441 23.5 11.5704Z" fill="#96BB7C"/>
    </symbol>
    <symbol id="card-inst" viewBox="0 0 24 24">
        <path d="M12.5 1C9.51487 1 9.1395 1.01375 7.96663 1.066C6.79375 1.121 5.99488 1.30525 5.295 1.5775C4.56088 1.85363 3.89593 2.28676 3.34663 2.84663C2.7871 3.39621 2.35402 4.06108 2.0775 4.795C1.80525 5.4935 1.61963 6.29375 1.566 7.4625C1.51375 8.63812 1.5 9.01213 1.5 12.0014C1.5 14.9879 1.51375 15.3619 1.566 16.5347C1.621 17.7062 1.80525 18.5051 2.0775 19.205C2.35937 19.9282 2.73475 20.5415 3.34663 21.1534C3.95713 21.7652 4.57038 22.142 5.29363 22.4225C5.99488 22.6948 6.79238 22.8804 7.96388 22.934C9.13813 22.9863 9.51212 23 12.5 23C15.4879 23 15.8605 22.9863 17.0347 22.934C18.2049 22.879 19.0065 22.6948 19.7064 22.4225C20.44 22.1462 21.1045 21.7131 21.6534 21.1534C22.2652 20.5415 22.6406 19.9282 22.9225 19.205C23.1934 18.5051 23.379 17.7062 23.434 16.5347C23.4863 15.3619 23.5 14.9879 23.5 12C23.5 9.01212 23.4863 8.63813 23.434 7.46388C23.379 6.29375 23.1934 5.4935 22.9225 4.795C22.646 4.06106 22.2129 3.39618 21.6534 2.84663C21.1042 2.28655 20.4392 1.85339 19.705 1.5775C19.0037 1.30525 18.2035 1.11963 17.0334 1.066C15.8591 1.01375 15.4865 1 12.4973 1H12.5014H12.5ZM11.5141 2.98275H12.5014C15.4384 2.98275 15.7862 2.99238 16.9454 3.046C18.0179 3.09413 18.6009 3.27425 18.9886 3.42412C19.5015 3.6235 19.8686 3.86275 20.2536 4.24775C20.6386 4.63275 20.8765 4.9985 21.0759 5.51275C21.2271 5.89913 21.4059 6.48213 21.454 7.55463C21.5076 8.71375 21.5186 9.06163 21.5186 11.9973C21.5186 14.9329 21.5076 15.2821 21.454 16.4412C21.4059 17.5137 21.2258 18.0954 21.0759 18.4831C20.8995 18.9607 20.618 19.3926 20.2522 19.7467C19.8672 20.1317 19.5015 20.3696 18.9873 20.569C18.6023 20.7203 18.0192 20.899 16.9454 20.9485C15.7862 21.0007 15.4384 21.0131 12.5014 21.0131C9.56438 21.0131 9.21513 21.0007 8.056 20.9485C6.9835 20.899 6.40187 20.7203 6.01412 20.569C5.53631 20.3929 5.10405 20.1119 4.74913 19.7467C4.38303 19.392 4.10112 18.9598 3.92412 18.4818C3.77425 18.0954 3.59413 17.5124 3.546 16.4399C3.49375 15.2807 3.48275 14.9329 3.48275 11.9945C3.48275 9.0575 3.49375 8.711 3.546 7.55187C3.5955 6.47937 3.77425 5.89638 3.9255 5.50863C4.12488 4.99575 4.36413 4.62862 4.74913 4.24362C5.13412 3.85862 5.49987 3.62075 6.01412 3.42138C6.40187 3.27013 6.9835 3.09138 8.056 3.04188C9.07075 2.99513 9.464 2.98138 11.5141 2.98V2.98275V2.98275ZM18.3726 4.80875C18.1993 4.80875 18.0276 4.84289 17.8675 4.90923C17.7073 4.97557 17.5618 5.0728 17.4392 5.19537C17.3167 5.31794 17.2194 5.46346 17.1531 5.62361C17.0868 5.78376 17.0526 5.9554 17.0526 6.12875C17.0526 6.30209 17.0868 6.47374 17.1531 6.63389C17.2194 6.79404 17.3167 6.93956 17.4392 7.06213C17.5618 7.1847 17.7073 7.28193 17.8675 7.34827C18.0276 7.41461 18.1993 7.44875 18.3726 7.44875C18.7227 7.44875 19.0585 7.30968 19.306 7.06213C19.5536 6.81458 19.6926 6.47884 19.6926 6.12875C19.6926 5.77866 19.5536 5.44292 19.306 5.19537C19.0585 4.94782 18.7227 4.80875 18.3726 4.80875V4.80875ZM12.5014 6.3515C11.7521 6.33981 11.008 6.47729 10.3123 6.75594C9.61671 7.0346 8.98346 7.44885 8.44946 7.97458C7.91546 8.50032 7.49138 9.12703 7.20191 9.81823C6.91244 10.5094 6.76336 11.2513 6.76336 12.0007C6.76336 12.7501 6.91244 13.4919 7.20191 14.1831C7.49138 14.8743 7.91546 15.5011 8.44946 16.0268C8.98346 16.5525 9.61671 16.9668 10.3123 17.2454C11.008 17.5241 11.7521 17.6616 12.5014 17.6499C13.9844 17.6267 15.3988 17.0214 16.4393 15.9645C17.4799 14.9076 18.0631 13.4839 18.0631 12.0007C18.0631 10.5175 17.4799 9.09382 16.4393 8.03691C15.3988 6.97999 13.9844 6.37464 12.5014 6.3515V6.3515ZM12.5014 8.33288C13.474 8.33288 14.4067 8.71923 15.0944 9.40695C15.7821 10.0947 16.1685 11.0274 16.1685 12C16.1685 12.9726 15.7821 13.9053 15.0944 14.593C14.4067 15.2808 13.474 15.6671 12.5014 15.6671C11.5288 15.6671 10.596 15.2808 9.90833 14.593C9.22061 13.9053 8.83425 12.9726 8.83425 12C8.83425 11.0274 9.22061 10.0947 9.90833 9.40695C10.596 8.71923 11.5288 8.33288 12.5014 8.33288V8.33288Z" fill="#96BB7C"/>
    </symbol>
    <symbol id="card-twitter" viewBox="0 0 24 24">
        <path d="M8.41075 19C16.713 19 21.2546 12.0731 21.2546 6.07669C21.2546 5.88285 21.2546 5.68625 21.2464 5.49241C22.1306 4.84789 22.8937 4.04993 23.5 3.13592C22.6741 3.50262 21.7988 3.7443 20.9026 3.85312C21.8466 3.28495 22.5536 2.391 22.8923 1.3374C22.0054 1.86647 21.0346 2.23787 20.0226 2.43534C19.3423 1.70572 18.4419 1.22237 17.4611 1.06016C16.4803 0.897946 15.4737 1.06592 14.5973 1.53807C13.7209 2.01023 13.0236 2.7602 12.6134 3.67182C12.2031 4.58345 12.1029 5.60585 12.3281 6.58066C10.5334 6.49005 8.77762 6.02057 7.17468 5.20269C5.57175 4.3848 4.15744 3.23678 3.0235 1.83307C2.44784 2.83421 2.27216 4.01843 2.53214 5.14526C2.79211 6.27209 3.46825 7.25705 4.42325 7.90013C3.70762 7.87565 3.00772 7.68215 2.38 7.33524V7.39754C2.38123 8.44631 2.74205 9.46248 3.40145 10.2743C4.06086 11.0861 4.9784 11.6438 5.999 11.853C5.61161 11.9605 5.21144 12.014 4.80963 12.0122C4.52635 12.0131 4.24365 11.9867 3.96537 11.9333C4.25383 12.8361 4.8155 13.6254 5.57171 14.1908C6.32793 14.7561 7.24081 15.0691 8.1825 15.0859C6.58276 16.3511 4.60668 17.0373 2.5725 17.034C2.21407 17.0355 1.85588 17.0147 1.5 16.9716C3.56458 18.297 5.96228 19.0008 8.41075 19V19Z" fill="#96BB7C"/>
    </symbol>
</svg>