<svg width="20" height="20" viewBox="0 0 20 20" fill="none" xmlns="http://www.w3.org/2000/svg">
<path d="M12.8 9.5C12.8 10.2426 12.505 10.9548 11.9799 11.4799C11.4548 12.005 10.7426 12.3 10 12.3C9.25739 12.3 8.5452 12.005 8.0201 11.4799C7.495 10.9548 7.2 10.2426 7.2 9.5C7.2 8.75739 7.495 8.0452 8.0201 7.5201C8.5452 6.995 9.25739 6.7 10 6.7C10.7426 6.7 11.4548 6.995 11.9799 7.5201C12.505 8.0452 12.8 8.75739 12.8 9.5Z" stroke="#252B42" stroke-width="1.4"/>
<path d="M17.3258 8.85606C17.4887 9.1161 17.6164 9.33663 17.7072 9.5C17.6164 9.66336 17.4887 9.8839 17.3258 10.1439C16.9591 10.7292 16.4183 11.5071 15.7216 12.282C14.3106 13.8515 12.3607 15.3 10 15.3C7.63933 15.3 5.68937 13.8515 4.27837 12.282C3.58172 11.5071 3.04095 10.7292 2.67423 10.1439C2.51128 9.8839 2.38362 9.66337 2.29276 9.5C2.38362 9.33663 2.51128 9.1161 2.67423 8.85606C3.04095 8.2708 3.58172 7.49288 4.27837 6.718C5.68937 5.14855 7.63933 3.7 10 3.7C12.3607 3.7 14.3106 5.14855 15.7216 6.718C16.4183 7.49288 16.9591 8.2708 17.3258 8.85606Z" stroke="#252B42" stroke-width="1.4"/>
</svg>
